# xmcd
#
# Track frame offsets: 
#        150
#        18176
#        28596
#        41888
#        49906
#        62347
#        77914
#        93169
#        106840
#        124648
#        140577
#
# Disc length: 2016 seconds
#
# Revision: 0
# Processed by: cddbd v1.5.1PL0 Copyright (c) Steve Scherf et al.
# Submitted via: ExactAudioCopy v0.95b2
#
DISCID=8707de0b
DTITLE=Various Artist - God Loves Country Music
DYEAR=1981
DGENRE=Christian
TTITLE0=George Highfill - God Loves Country Music
TTITLE1=Bruce Herring and Tommy Coomes - O Lord I Thank You
TTITLE2=Von Rogers - Servant Of All
TTITLE3=Bruce Herring - If We Walk In The Light (1 John 1:7)
TTITLE4=Cindy Baxter - Draw Me Nearer
TTITLE5=George Highfill - Come Let Us Worship And Bow Down
TTITLE6=Richie Furay - Psalm 5
TTITLE7=Cindy Baxter - From The Rising Of The Sun
TTITLE8=George Highfill - Freely, Freely
TTITLE9=Chris Hillman - Create In Me A Clean Heart (Psalm 51)
TTITLE10=Terry Taylor - The Christian Life
EXTD=
EXTT0=
EXTT1=
EXTT2=
EXTT3=
EXTT4=
EXTT5=
EXTT6=
EXTT7=
EXTT8=
EXTT9=
EXTT10=
PLAYORDER=
